<svg width="32" height="32" viewBox="0 0 32 32" fill="none" xmlns="http://www.w3.org/2000/svg">
    <path d="M31.8813 15.4499C31.7375 15.0437 31.4438 14.7187 31.0312 14.5249L30.7188 14.3749H18.175C11.2688 14.3749 5.625 14.3687 5.625 14.3562C5.625 14.3499 7.2125 12.7562 9.15 10.8187C11.4875 8.48119 12.7313 7.19369 12.8313 7.00619C13.2813 6.17494 12.9563 5.18744 12.1 4.75619C11.7188 4.56869 11.1063 4.56244 10.7313 4.74369C10.55 4.83119 8.8875 6.45619 5.33125 10.0124C0.337501 15.0124 0.193751 15.1687 0.100001 15.4937C-0.0312488 15.9499 -0.0249988 16.1749 0.131251 16.6062C0.256251 16.9499 0.506251 17.2124 5.3375 22.0437C10.9 27.6124 10.6438 27.3937 11.4063 27.3937C12.575 27.3937 13.3313 26.2687 12.9125 25.1562C12.8125 24.8812 12.3563 24.3999 9.2 21.2374L5.6 17.6249L18.2188 17.6124L30.8438 17.5937L31.1 17.4562C31.4688 17.2624 31.7875 16.8749 31.9 16.4937C32.025 16.0749 32.025 15.8624 31.8813 15.4499Z" fill="#F1F1F1"/>
    </svg>
    