<svg width="20" height="20" viewBox="0 0 20 20" fill="none" xmlns="http://www.w3.org/2000/svg">
    <g clip-path="url(#clip0_151_5)">
    <path d="M10.2657 0.859375C10.1446 0.878906 9.93366 0.921875 9.79694 0.957031C8.69538 1.24219 7.69929 2.13672 7.32038 3.17969C7.21882 3.46484 7.10944 3.96094 7.10944 4.15234C7.10944 4.28125 7.10163 4.28516 6.86725 4.35156C5.98835 4.59766 5.24225 5.36328 4.98054 6.28906C4.88288 6.63281 4.87897 7.30859 4.97272 7.65625C5.23444 8.61719 5.98054 9.36328 6.95319 9.63672C7.19147 9.70312 7.49616 9.70703 12.2657 9.70703C16.3751 9.70703 17.3633 9.69531 17.5391 9.65625C17.8477 9.57812 18.4219 9.28906 18.668 9.08984C19.1212 8.71094 19.4688 8.15234 19.5899 7.59375C19.6954 7.13281 19.6563 6.48438 19.504 6.07031C19.1602 5.15234 18.4415 4.51562 17.5079 4.30469L17.211 4.23828L17.1602 4.00781C16.9766 3.19141 16.254 2.48438 15.4258 2.30469C15.0587 2.22266 14.4493 2.26953 14.1212 2.40234L13.8516 2.51172L13.7696 2.40234C13.5548 2.10156 13.2891 1.8125 13.0548 1.61719C12.7266 1.34375 12.1133 1.04297 11.6798 0.9375C11.2969 0.847656 10.5899 0.808594 10.2657 0.859375ZM11.6602 1.5625C12.1602 1.71875 12.5274 1.94141 12.8712 2.28516C13.0508 2.46484 13.2423 2.70312 13.3204 2.84766C13.3946 2.98438 13.4883 3.12891 13.5274 3.16797C13.6173 3.26953 13.8204 3.26172 13.9844 3.15234C14.668 2.69531 15.5469 2.78516 16.129 3.36719C16.3946 3.62891 16.5508 3.95703 16.6055 4.35547C16.6563 4.74219 16.7344 4.84375 16.9727 4.84375C17.2071 4.84375 17.7071 4.98047 17.9415 5.10547C18.379 5.34375 18.754 5.78906 18.9298 6.27344C19.3477 7.42578 18.6602 8.72266 17.461 9.04297C17.2774 9.09375 16.5118 9.10156 12.2891 9.10156C7.8946 9.10156 7.30866 9.09375 7.09382 9.03906C6.37116 8.85156 5.75788 8.23828 5.57038 7.51562C5.26569 6.33203 6.07038 5.08984 7.28132 4.87891C7.6485 4.81641 7.67585 4.77734 7.711 4.33203C7.74616 3.87109 7.82038 3.54688 7.96491 3.22656C8.35944 2.35938 9.15241 1.71875 10.1016 1.50781C10.4962 1.41797 11.2969 1.44531 11.6602 1.5625Z" fill="#1C1C1C"/>
    <path d="M9.85538 4.65625C9.28506 5.22266 9.24209 5.30078 9.4335 5.48828C9.58584 5.64453 9.71084 5.61719 9.94913 5.38281L10.1562 5.17969V6.33594V7.49609L10.246 7.60156C10.3749 7.74609 10.5624 7.74609 10.6913 7.60156L10.7812 7.49609V6.33594V5.17969L10.9882 5.38281C11.2187 5.60938 11.3319 5.63672 11.4999 5.50391C11.5741 5.44531 11.6015 5.38672 11.6015 5.28516C11.6015 5.16406 11.5546 5.10156 11.164 4.69922C10.7304 4.25781 10.578 4.14062 10.4452 4.14062C10.4062 4.14062 10.1444 4.37109 9.85538 4.65625Z" fill="#1C1C1C"/>
    <path d="M13.2969 4.1875C13.1367 4.26172 13.125 4.36719 13.125 5.53516V6.65234L12.9297 6.46875C12.7773 6.32422 12.7109 6.28906 12.5977 6.28906C12.4258 6.28906 12.3047 6.40234 12.3047 6.57031C12.3047 6.67578 12.375 6.76563 12.8008 7.19531C13.2539 7.65234 13.3086 7.69531 13.4375 7.69531C13.5664 7.69531 13.6211 7.65234 14.0742 7.19531C14.6172 6.64453 14.6641 6.54688 14.4805 6.375C14.3281 6.23047 14.168 6.26172 13.9453 6.46875L13.75 6.65234V5.51172V4.36719L13.6367 4.25391C13.5156 4.13672 13.4336 4.11719 13.2969 4.1875Z" fill="#1C1C1C"/>
    <path d="M0.398438 9.77734L0.3125 9.86719V14.4297V18.9883L0.410156 19.082L0.503906 19.1797H2.375C4.21094 19.1797 4.25 19.1797 4.35156 19.0977L4.45312 19.0195V18.3711C4.45312 17.7734 4.45703 17.7266 4.52344 17.7461C4.55859 17.7578 5.32812 18.0781 6.23047 18.4609L7.87109 19.1602L11.6133 19.1719C15.3281 19.1797 15.3555 19.1797 15.543 19.0977C15.6992 19.0312 16.043 18.7031 17.543 17.1641C19.4609 15.2031 19.5547 15.0898 19.6484 14.6445C19.8281 13.8008 19.375 12.9688 18.5625 12.6523C18.25 12.5273 17.6914 12.5273 17.3828 12.6484C17.1016 12.7578 17.0742 12.7812 16.0352 13.6641C15.5469 14.082 15.1367 14.4062 15.1211 14.3867C15.1055 14.3711 15.0625 14.2539 15.0273 14.1328C14.9492 13.8789 14.6914 13.5078 14.4805 13.3477C14.2734 13.1914 13.8828 13.0156 13.6367 12.9688C13.5195 12.9492 13.0977 12.9297 12.6953 12.9297H11.9648L10.5234 11.832C9.73047 11.2305 9.03125 10.707 8.96484 10.6719C8.85938 10.6133 8.60156 10.6016 6.66016 10.5859L4.47266 10.5664L4.46094 10.2148C4.45312 9.92188 4.4375 9.85156 4.36719 9.77734L4.28516 9.6875H2.38281H0.480469L0.398438 9.77734ZM3.86719 14.4141V18.5547H2.38281H0.898438V14.4141V10.2734H2.38281H3.86719V14.4141ZM10.1172 12.2891C10.9219 12.9062 11.6445 13.4375 11.7188 13.4688C11.8281 13.5195 12.0469 13.5391 12.7539 13.5547C13.7695 13.5781 13.8633 13.6016 14.1758 13.9102C14.7422 14.4766 14.5898 15.418 13.8789 15.7656L13.6523 15.8789L11.4922 15.8984L9.32812 15.918L9.25391 16.0117C9.125 16.1719 9.16016 16.375 9.33984 16.4648C9.42969 16.5156 9.76562 16.5234 11.4336 16.5234C13.5898 16.5234 13.7539 16.5078 14.1758 16.3008C14.4453 16.1719 14.7773 15.832 14.9375 15.5273C15.0469 15.3164 15.1797 15.1914 16.1914 14.3242C16.8242 13.7852 17.4102 13.3164 17.5195 13.2617C17.9102 13.0664 18.4336 13.1641 18.7578 13.4883C18.9805 13.707 19.0781 13.957 19.0781 14.2773C19.0703 14.7695 19.25 14.5547 16.6133 17.2344L15.3164 18.5547H11.6758H8.03516L7.05469 18.1445C6.51562 17.918 5.71094 17.5781 5.26562 17.3906L4.45312 17.0508V14.1094V11.1719H6.55469H8.65234L10.1172 12.2891Z" fill="#1C1C1C"/>
    </g>
    <defs>
    <clipPath id="clip0_151_5">
    <rect width="20" height="20" fill="white"/>
    </clipPath>
    </defs>
    </svg>
    