<svg width="35" height="35" viewBox="0 0 35 35" fill="none" xmlns="http://www.w3.org/2000/svg">
    <g clip-path="url(#clip0_141_89)">
    <path d="M16.2559 34.8975C16.8643 34.7607 17.7393 34.3164 18.1973 33.9062C18.6689 33.4893 19.1885 32.7236 19.4072 32.1426L19.5645 31.7187L26.9336 31.7051C34.2617 31.6846 34.3096 31.6846 34.4941 31.541C34.8564 31.2744 34.9658 31.0625 34.9658 30.625C34.9658 30.1875 34.8564 29.9756 34.4941 29.709C34.3096 29.5654 34.2617 29.5654 26.9404 29.5449L19.5781 29.5312L19.3594 28.998C18.1563 26.0859 14.4443 25.3271 12.2363 27.542C11.7305 28.0547 11.3408 28.6768 11.1426 29.2715L11.0674 29.5312L5.87891 29.5449C0.765629 29.5654 0.690434 29.5654 0.505863 29.709C-0.170895 30.208 -0.150387 31.1787 0.540043 31.5684L0.806644 31.7187H5.9336H11.0606L11.1426 31.9785C11.4775 33.0176 12.3525 34.0293 13.3301 34.5146C14.2734 34.9795 15.2783 35.1094 16.2559 34.8975Z" fill="#3098AE"/>
    <path d="M27.1729 21.7656C28.7178 21.4238 29.9551 20.2686 30.4473 18.7168C30.4814 18.6006 30.6318 18.5938 32.3135 18.5938C34.0156 18.5938 34.1592 18.5869 34.4258 18.4502C34.7539 18.293 35 17.8897 35 17.5C35 17.1104 34.7539 16.707 34.4258 16.5498C34.1592 16.4131 34.0156 16.4063 32.3271 16.4063H30.5156L30.2969 15.8799C29.7227 14.4922 28.5469 13.5215 27.0703 13.2207C24.999 12.8037 22.9619 13.9385 22.1689 15.9414L21.9912 16.4063L11.3408 16.4199C0.704102 16.4404 0.69043 16.4404 0.505859 16.584C0.143555 16.8506 0.0341797 17.0693 0.0341797 17.5C0.0341797 17.9307 0.143555 18.1494 0.505859 18.416C0.69043 18.5596 0.704102 18.5596 11.3477 18.5801L22.0049 18.5938L22.0801 18.8535C22.4971 20.1524 23.6865 21.3076 25.0195 21.6973C25.5732 21.8613 26.5918 21.8955 27.1729 21.7656Z" fill="#3098AE"/>
    <path d="M16.2695 8.64063C16.5156 8.59277 16.9736 8.42188 17.2881 8.26465C18.2314 7.7998 19.0586 6.86328 19.4072 5.87207L19.5371 5.50293L26.9268 5.46875C34.248 5.43457 34.3096 5.43457 34.4941 5.29102C34.8564 5.02441 34.9658 4.8125 34.9658 4.375C34.9658 3.9375 34.8564 3.72559 34.4941 3.45898C34.3096 3.31543 34.248 3.31543 26.9268 3.28125L19.5371 3.24707L19.4141 2.88476C18.9219 1.49707 17.6641 0.410155 16.1943 0.102538C15.21 -0.10254 14.2803 0.0205066 13.3301 0.48535C12.3525 0.970702 11.4775 1.98242 11.1426 3.02148L11.0674 3.28125L5.87891 3.29492C0.765625 3.31543 0.69043 3.31543 0.505859 3.45898C0.143555 3.72559 0.0341797 3.94434 0.0341797 4.375C0.0341797 4.80566 0.143555 5.02441 0.505859 5.29102C0.69043 5.43457 0.765625 5.43457 5.87207 5.45508L11.0537 5.46875L11.1973 5.86523C11.833 7.59473 13.5146 8.75684 15.3467 8.74316C15.6064 8.74316 16.0234 8.69531 16.2695 8.64063Z" fill="#3098AE"/>
    </g>
    <defs>
    <clipPath id="clip0_141_89">
    <rect width="35" height="35" fill="white" transform="matrix(-1 0 0 -1 35 35)"/>
    </clipPath>
    </defs>
    </svg>
    