<?xml version="1.0" standalone="no"?>
<!DOCTYPE svg PUBLIC "-//W3C//DTD SVG 20010904//EN"
 "http://www.w3.org/TR/2001/REC-SVG-20010904/DTD/svg10.dtd">
<svg version="1.0" xmlns="http://www.w3.org/2000/svg"
 width="307.000000pt" height="340.000000pt" viewBox="0 0 307.000000 340.000000"
 preserveAspectRatio="xMidYMid meet">

<g transform="translate(0.000000,340.000000) scale(0.100000,-0.100000)"
fill="#000000" stroke="none">
<path d="M1282 3340 c-173 -48 -275 -114 -437 -281 -90 -93 -118 -130 -153
-200 -178 -357 -110 -787 205 -1314 144 -240 270 -410 477 -645 120 -136 144
-160 157 -160 4 0 39 33 77 72 386 402 715 930 806 1293 100 402 35 713 -203
967 -115 123 -247 207 -406 258 -61 20 -95 24 -260 26 -167 3 -199 1 -263 -16z
m458 -448 c87 -43 200 -155 234 -232 44 -99 58 -230 35 -330 -32 -138 -135
-266 -266 -328 l-78 -37 -135 0 c-134 0 -135 0 -210 36 -182 87 -281 248 -280
453 1 189 106 350 285 438 l80 39 135 -3 c128 -4 138 -6 200 -36z"/>
<path d="M1326 2610 c-66 -20 -100 -78 -94 -162 4 -49 9 -64 35 -90 33 -33 88
-48 138 -38 19 4 40 1 57 -9 22 -12 30 -13 40 -3 11 11 8 17 -11 31 -23 18
-23 18 -5 46 23 36 24 119 1 162 -27 51 -102 80 -161 63z m112 -67 c15 -20 16
-117 2 -143 -9 -17 -14 -18 -35 -8 -30 13 -43 5 -25 -17 11 -13 8 -15 -22 -15
-53 0 -73 28 -73 105 0 68 18 101 59 107 31 5 79 -9 94 -29z"/>
<path d="M1560 2471 c0 -86 4 -142 10 -146 22 -13 40 17 40 66 0 47 1 49 28
49 34 0 43 -7 71 -53 32 -53 48 -66 71 -60 11 3 20 8 20 12 0 3 -18 29 -40 58
l-39 52 29 17 c46 28 53 82 15 119 -22 23 -32 25 -115 25 l-90 0 0 -139z m170
85 c6 -8 10 -25 8 -38 -3 -21 -9 -23 -65 -26 l-63 -3 0 41 0 40 54 0 c34 0 58
-5 66 -14z"/>
<path d="M870 1083 c-175 -30 -414 -105 -540 -170 -181 -93 -268 -184 -285
-295 -6 -38 -3 -56 18 -101 25 -56 102 -147 123 -147 6 0 18 -7 25 -16 12 -14
116 -78 129 -79 3 -1 14 -6 25 -12 62 -33 342 -116 465 -137 19 -3 46 -8 60
-11 14 -3 39 -7 55 -10 17 -2 75 -9 130 -17 128 -17 779 -17 915 0 52 6 145
21 205 32 61 11 126 23 145 26 59 10 281 84 350 116 36 17 95 50 131 74 137
89 192 163 193 263 0 87 -43 146 -189 258 -30 24 -65 42 -65 36 0 -5 -4 -3 -8
2 -11 16 -135 73 -210 96 -37 11 -78 25 -91 30 -16 7 -28 6 -38 -2 -11 -10
-13 -10 -11 1 3 12 -22 23 -77 34 -167 36 -176 37 -189 27 -19 -16 -70 -91
-65 -95 2 -3 24 -7 49 -11 25 -4 50 -8 55 -9 182 -44 236 -61 312 -98 122 -60
153 -93 153 -163 0 -52 -13 -69 -83 -116 -61 -41 -247 -110 -332 -123 -22 -3
-56 -8 -75 -11 -64 -10 -94 -14 -155 -20 -33 -4 -73 -9 -90 -11 -16 -3 -154
-7 -305 -9 -268 -4 -467 6 -660 35 -228 33 -442 113 -499 186 -25 32 -28 99
-6 130 8 12 12 24 10 28 -3 3 -2 4 2 1 3 -3 16 3 27 14 52 47 231 119 365 146
99 21 128 26 144 26 24 0 22 7 -18 62 -35 46 -41 49 -95 40z"/>
</g>
</svg>
