<svg width="16" height="16" viewBox="0 0 16 16" fill="none" xmlns="http://www.w3.org/2000/svg">
    <g clip-path="url(#clip0_141_97)">
    <path d="M5.75 0.0187492C4.6 0.103125 3.43438 0.540625 2.51562 1.23125C1.17813 2.23437 0.340625 3.63437 0.075 5.31562C0.00625 5.75625 0.00625 6.68125 0.075 7.12187C0.51875 9.925 2.65313 12.0031 5.46563 12.375C5.84375 12.425 6.64375 12.4156 7.05938 12.3594C7.85938 12.2469 8.74063 11.9406 9.35938 11.5625C9.47188 11.4937 9.575 11.4375 9.5875 11.4375C9.59688 11.4375 10.5844 12.4156 11.7812 13.6094C14.1594 15.9844 14.0625 15.9 14.5156 15.9781C15.35 16.1219 16.1125 15.35 15.9719 14.5094C15.8969 14.0719 15.9625 14.1469 13.5969 11.775L11.425 9.59375L11.4969 9.47812C11.6562 9.20937 12.0031 8.46562 12.0938 8.1875C12.4406 7.14062 12.5063 5.89687 12.2656 4.85937C11.9875 3.65625 11.3844 2.5875 10.5188 1.75937C9.55937 0.840625 8.45625 0.290625 7.15625 0.078124C6.85313 0.031249 6.05938 -0.00312519 5.75 0.0187492ZM7.04688 0.549999C9.59375 0.928124 11.5688 2.95312 11.8906 5.51562C12.0281 6.60312 11.8469 7.6875 11.3625 8.70312C11.2719 8.89062 11.1344 9.14375 11.0563 9.26562C10.9062 9.50312 10.5281 9.95937 10.2219 10.275C10.1156 10.3844 10.0219 10.5062 10.0125 10.55C9.97188 10.7031 10.1687 10.8719 10.3219 10.8156C10.3906 10.7875 10.7563 10.4219 10.9938 10.1406L11.125 9.98437L13.25 12.1094C15.5375 14.3969 15.5031 14.3562 15.5063 14.6844C15.5063 14.9187 15.45 15.075 15.2969 15.2437C15.1313 15.425 14.9594 15.5062 14.7188 15.5094C14.3625 15.5125 14.4875 15.6219 12.0625 13.2031C10.8344 11.9781 9.79375 10.9531 9.75 10.925C9.63125 10.8469 9.575 10.8625 9.28438 11.0437C6.98125 12.4875 4.05312 12.1562 2.15 10.2437C1.075 9.15937 0.496875 7.75625 0.496875 6.21875C0.496875 4.65937 1.06875 3.275 2.17188 2.16875C3.4625 0.874999 5.24062 0.284374 7.04688 0.549999Z" fill="#1F3A4A"/>
    <path d="M5.73438 1.37811C4.91875 1.46562 4.10313 1.76874 3.43438 2.23436C3.05625 2.49999 2.46563 3.10312 2.2125 3.48436C1.825 4.06874 1.56875 4.69687 1.44688 5.34999C1.3625 5.79686 1.37188 6.69374 1.46563 7.12499C1.75938 8.49999 2.54688 9.63437 3.70313 10.3437C4.4625 10.8094 5.30938 11.0406 6.25 11.0375C7.06563 11.0344 7.76875 10.8625 8.46875 10.4969C10.0656 9.65937 11.0625 8.00937 11.0625 6.20311C11.0625 4.44374 10.1375 2.85624 8.60313 1.98124C8.28438 1.79999 8.13125 1.80311 8.05938 1.99061C8.00313 2.14061 8.06875 2.22186 8.40625 2.41874C9.65313 3.15624 10.4344 4.38124 10.5688 5.81562C10.6844 7.07187 10.2344 8.34062 9.34688 9.24374C9.04688 9.55312 8.8125 9.73749 8.46875 9.94687C7.27813 10.6687 5.71875 10.7656 4.45938 10.1969C2.3125 9.22812 1.3125 6.79686 2.15938 4.60936C2.6875 3.24374 3.86875 2.24999 5.35938 1.91562C5.55313 1.87499 5.7625 1.85936 6.29688 1.85624C6.675 1.85312 7.00313 1.84999 7.02188 1.84686C7.04375 1.84686 7.08125 1.80311 7.10938 1.74999C7.15 1.66874 7.15313 1.64374 7.1125 1.54999C7.05938 1.42499 7.04063 1.41562 6.65625 1.37499C6.31563 1.34062 6.09063 1.34062 5.73438 1.37811Z" fill="#1F3A4A"/>
    </g>
    <defs>
    <clipPath id="clip0_141_97">
    <rect width="16" height="16" fill="white"/>
    </clipPath>
    </defs>
    </svg>
    