<svg width="19" height="25" viewBox="0 0 19 25" fill="none" xmlns="http://www.w3.org/2000/svg">
    <path fill-rule="evenodd" clip-rule="evenodd" d="M9.5 0C14.7467 0 19 4.25329 19 9.5C19 10.1404 18.9366 10.7661 18.8158 11.3709C17.9773 17.6896 9.54992 24.881 9.54992 24.881C9.54992 24.881 2.37812 18.761 0.608253 12.852C0.21511 11.8096 0 10.6799 0 9.5C0 4.25329 4.25329 0 9.5 0Z" fill="#1F3A4A"/>
    <path d="M13.119 9.50003C13.119 7.50128 11.4987 5.88098 9.5 5.88098C7.50125 5.88098 5.88095 7.50128 5.88095 9.50003C5.88095 11.4988 7.50125 13.1191 9.5 13.1191C11.4987 13.1191 13.119 11.4988 13.119 9.50003Z" fill="white"/>
    </svg>
    