<svg width="32" height="32" viewBox="0 0 32 32" fill="none" xmlns="http://www.w3.org/2000/svg">
    <g clip-path="url(#clip0_98_2)">
    <path d="M25.4669 0.0912895C23.7482 0.40379 22.1732 1.64754 21.4544 3.27879C21.1294 4.01004 21.0294 4.51629 21.0169 5.48504L21.0044 6.39129L16.3232 8.94129C13.7482 10.3475 11.3982 11.6288 11.0982 11.785L10.5607 12.0788L10.0607 11.61C7.67315 9.37254 3.9294 9.47879 1.6669 11.8538C-0.939347 14.5788 -0.420597 18.985 2.7419 21.0288C5.0294 22.51 8.0669 22.2413 10.0607 20.3725L10.5544 19.91L10.8169 20.0413C10.9607 20.11 13.3169 21.3913 16.0482 22.885L21.0169 25.6038L20.9982 26.2475C20.9482 27.8225 21.4982 29.2475 22.5794 30.3413C24.7357 32.535 28.2357 32.535 30.3919 30.3413C32.5419 28.1663 32.4982 24.6913 30.2982 22.5538C28.4794 20.785 25.7357 20.4913 23.5669 21.8413C23.0232 22.1788 22.2357 22.9288 21.9544 23.3788C21.8482 23.5475 21.7482 23.6788 21.7232 23.6788C21.6857 23.6788 13.2482 19.0975 11.7919 18.2913L11.5732 18.1725L11.7107 17.7413C12.0294 16.7725 12.0607 15.51 11.7919 14.5225C11.7169 14.2475 11.6544 13.9663 11.6482 13.8975C11.6419 13.7975 12.5544 13.2788 16.6419 11.0475C19.3919 9.54129 21.6732 8.31004 21.7044 8.31004C21.7419 8.30379 21.8482 8.43504 21.9544 8.60379C22.0544 8.76629 22.3357 9.09754 22.5794 9.34129C24.6982 11.4975 28.1544 11.535 30.3044 9.42254C31.3357 8.41004 31.8794 7.20379 31.9669 5.77254C32.1669 2.24129 28.9794 -0.546211 25.4669 0.0912895Z" fill="#F1F1F1"/>
    </g>
    <defs>
    <clipPath id="clip0_98_2">
    <rect width="32" height="32" fill="white"/>
    </clipPath>
    </defs>
    </svg>
    